<svg width="64" height="64" viewBox="0 0 64 64" fill="none" xmlns="http://www.w3.org/2000/svg">
<g clip-path="url(#clip0_2136_3289)">
<path d="M58.6663 32C58.6663 29.0667 56.2663 26.6667 53.333 26.6667V18.6667C53.333 15.7333 50.933 13.3333 47.9997 13.3333H15.9997C13.0663 13.3333 10.6663 15.7333 10.6663 18.6667V26.6667C7.73301 26.6667 5.33301 29.0667 5.33301 32V45.3333H8.87967L10.6663 50.6667H13.333L15.1197 45.3333H48.9063L50.6663 50.6667H53.333L55.1197 45.3333H58.6663V32ZM47.9997 26.6667H34.6663V18.6667H47.9997V26.6667ZM15.9997 18.6667H29.333V26.6667H15.9997V18.6667ZM10.6663 32H53.333V40H10.6663V32Z" fill="#325FEC"/>
</g>
<defs>
<clipPath id="clip0_2136_3289">
<rect width="64" height="64" fill="white"/>
</clipPath>
</defs>
</svg>
