<svg width="64" height="64" viewBox="0 0 64 64" fill="none" xmlns="http://www.w3.org/2000/svg">
<g clip-path="url(#clip0_2029_2394)">
<path d="M53.333 16H42.6663V10.6667C42.6663 7.73333 40.2663 5.33333 37.333 5.33333H26.6663C23.733 5.33333 21.333 7.73333 21.333 10.6667V16H10.6663C7.73301 16 5.33301 18.4 5.33301 21.3333V53.3333C5.33301 56.2667 7.73301 58.6667 10.6663 58.6667H53.333C56.2663 58.6667 58.6663 56.2667 58.6663 53.3333V21.3333C58.6663 18.4 56.2663 16 53.333 16ZM26.6663 10.6667H37.333V16H26.6663V10.6667ZM53.333 53.3333H10.6663V21.3333H53.333V53.3333Z" fill="#325FEC"/>
<path d="M34.6663 26.6667H29.333V34.6667H21.333V40H29.333V48H34.6663V40H42.6663V34.6667H34.6663V26.6667Z" fill="#325FEC"/>
</g>
<defs>
<clipPath id="clip0_2029_2394">
<rect width="64" height="64" fill="white"/>
</clipPath>
</defs>
</svg>
