<svg width="64" height="64" viewBox="0 0 64 64" fill="none" xmlns="http://www.w3.org/2000/svg">
<g clip-path="url(#clip0_2136_3294)">
<path d="M42.4097 34.8015L36.7529 40.4583L52.7428 56.4482L58.3996 50.7914L42.4097 34.8015Z" fill="#325FEC"/>
<path d="M46.6653 26.6667C51.812 26.6667 55.9986 22.48 55.9986 17.3333C55.9986 15.7867 55.572 14.3467 54.9053 13.0667L47.7053 20.2667L43.732 16.2933L50.932 9.09334C49.652 8.42667 48.212 8.00001 46.6653 8.00001C41.5186 8.00001 37.332 12.1867 37.332 17.3333C37.332 18.4267 37.5453 19.4667 37.892 20.4267L32.9586 25.36L28.212 20.6133L30.1053 18.72L26.3453 14.96L31.9986 9.30667C28.8786 6.18667 23.812 6.18667 20.692 9.30667L11.252 18.7467L15.012 22.5067H7.49197L5.59863 24.4L15.0386 33.84L16.932 31.9467V24.4L20.692 28.16L22.5853 26.2667L27.332 31.0133L7.57197 50.7733L13.2253 56.4267L43.572 26.1067C44.532 26.4533 45.572 26.6667 46.6653 26.6667Z" fill="#325FEC"/>
</g>
<defs>
<clipPath id="clip0_2136_3294">
<rect width="64" height="64" fill="white"/>
</clipPath>
</defs>
</svg>
