<svg width="64" height="64" viewBox="0 0 64 64" fill="none" xmlns="http://www.w3.org/2000/svg">
<g clip-path="url(#clip0_2136_3317)">
<path d="M31.4678 29.0667C25.4145 27.4933 23.4678 25.8667 23.4678 23.3333C23.4678 20.4267 26.1612 18.4 30.6678 18.4C35.4145 18.4 37.1745 20.6667 37.3345 24H43.2278C43.0412 19.4133 40.2412 15.2 34.6678 13.84V8H26.6678V13.76C21.4945 14.88 17.3345 18.24 17.3345 23.3867C17.3345 29.5467 22.4278 32.6133 29.8678 34.4C36.5345 36 37.8678 38.3467 37.8678 40.8267C37.8678 42.6667 36.5612 45.6 30.6678 45.6C25.1745 45.6 23.0145 43.1467 22.7212 40H16.8545C17.1745 45.84 21.5478 49.12 26.6678 50.2133V56H34.6678V50.2667C39.8678 49.28 44.0012 46.2667 44.0012 40.8C44.0012 33.2267 37.5212 30.64 31.4678 29.0667Z" fill="#325FEC"/>
</g>
<defs>
<clipPath id="clip0_2136_3317">
<rect width="64" height="64" fill="white"/>
</clipPath>
</defs>
</svg>
