<svg width="64" height="64" viewBox="0 0 64 64" fill="none" xmlns="http://www.w3.org/2000/svg">
<g clip-path="url(#clip0_2136_3304)">
<path d="M53.1467 22.2667L43.5467 26.7467L37.3333 20.5333V16.8L43.5467 10.5867L53.1467 15.0667C54.16 15.5467 55.3333 15.0933 55.8133 14.1067C56.2933 13.0933 55.84 11.92 54.8533 11.44L44.4 6.55999C43.3867 6.07999 42.1867 6.29333 41.3867 7.09333L36.7467 11.7333C36.2667 11.0933 35.52 10.6667 34.6667 10.6667C33.2 10.6667 32 11.8667 32 13.3333V16H23.52C22.4 12.9067 19.4667 10.6667 16 10.6667C11.5733 10.6667 8 14.24 8 18.6667C8 21.6 9.6 24.1333 11.9467 25.5467L18.88 48H16C13.0667 48 10.6667 50.4 10.6667 53.3333V56H45.3333V53.3333C45.3333 50.4 42.9333 48 40 48H35.68L22.4267 23.3867C22.88 22.7467 23.2533 22.08 23.52 21.3333H32V24C32 25.4667 33.2 26.6667 34.6667 26.6667C35.52 26.6667 36.2667 26.24 36.7467 25.6L41.3867 30.24C42.1867 31.04 43.3867 31.2533 44.4 30.7733L54.8533 25.8933C55.8667 25.4133 56.2933 24.24 55.8133 23.2267C55.3333 22.24 54.16 21.7867 53.1467 22.2667ZM16 21.3333C14.5333 21.3333 13.3333 20.1333 13.3333 18.6667C13.3333 17.2 14.5333 16 16 16C17.4667 16 18.6667 17.2 18.6667 18.6667C18.6667 20.1333 17.4667 21.3333 16 21.3333ZM29.6267 48H24.4533L17.8933 26.6667H18.16L29.6267 48Z" fill="#325FEC"/>
</g>
<defs>
<clipPath id="clip0_2136_3304">
<rect width="64" height="64" fill="white"/>
</clipPath>
</defs>
</svg>
