<svg width="64" height="64" viewBox="0 0 64 64" fill="none" xmlns="http://www.w3.org/2000/svg">
<g clip-path="url(#clip0_2136_3301)">
<path d="M31.9997 18.6667V8H5.33301V56H58.6663V18.6667H31.9997ZM15.9997 50.6667H10.6663V45.3333H15.9997V50.6667ZM15.9997 40H10.6663V34.6667H15.9997V40ZM15.9997 29.3333H10.6663V24H15.9997V29.3333ZM15.9997 18.6667H10.6663V13.3333H15.9997V18.6667ZM26.6663 50.6667H21.333V45.3333H26.6663V50.6667ZM26.6663 40H21.333V34.6667H26.6663V40ZM26.6663 29.3333H21.333V24H26.6663V29.3333ZM26.6663 18.6667H21.333V13.3333H26.6663V18.6667ZM53.333 50.6667H31.9997V45.3333H37.333V40H31.9997V34.6667H37.333V29.3333H31.9997V24H53.333V50.6667ZM47.9997 29.3333H42.6663V34.6667H47.9997V29.3333ZM47.9997 40H42.6663V45.3333H47.9997V40Z" fill="#325FEC"/>
</g>
<defs>
<clipPath id="clip0_2136_3301">
<rect width="64" height="64" fill="white"/>
</clipPath>
</defs>
</svg>
