<svg width="64" height="64" viewBox="0 0 64 64" fill="none" xmlns="http://www.w3.org/2000/svg">
<g clip-path="url(#clip0_2136_3309)">
<path d="M22.667 42.6667C24.8761 42.6667 26.667 40.8758 26.667 38.6667C26.667 36.4575 24.8761 34.6667 22.667 34.6667C20.4579 34.6667 18.667 36.4575 18.667 38.6667C18.667 40.8758 20.4579 42.6667 22.667 42.6667Z" fill="#325FEC"/>
<path d="M41.333 42.6667C43.5421 42.6667 45.333 40.8758 45.333 38.6667C45.333 36.4575 43.5421 34.6667 41.333 34.6667C39.1239 34.6667 37.333 36.4575 37.333 38.6667C37.333 40.8758 39.1239 42.6667 41.333 42.6667Z" fill="#325FEC"/>
<path d="M32.0003 5.33333C21.3337 5.33333 10.667 6.66666 10.667 16V41.3333C10.667 46.48 14.8537 50.6667 20.0003 50.6667L16.0003 54.6667V56H21.3337L26.667 50.6667H37.3337L42.667 56H48.0003V54.6667L44.0003 50.6667C49.147 50.6667 53.3337 46.48 53.3337 41.3333V16C53.3337 6.66666 42.667 5.33333 32.0003 5.33333ZM32.0003 10.6667C41.3603 10.6667 45.227 11.9467 46.8537 13.3333H17.147C18.7737 11.9467 22.6403 10.6667 32.0003 10.6667ZM16.0003 18.6667H29.3337V26.6667H16.0003V18.6667ZM48.0003 41.3333C48.0003 43.5467 46.2137 45.3333 44.0003 45.3333H20.0003C17.787 45.3333 16.0003 43.5467 16.0003 41.3333V32H48.0003V41.3333ZM48.0003 26.6667H34.667V18.6667H48.0003V26.6667Z" fill="#325FEC"/>
</g>
<defs>
<clipPath id="clip0_2136_3309">
<rect width="64" height="64" fill="white"/>
</clipPath>
</defs>
</svg>
