<svg width="202" height="72" viewBox="0 0 202 72" fill="none" xmlns="http://www.w3.org/2000/svg">
<g clip-path="url(#clip0_2068_2706)">
<path d="M66.0289 34.9404C66.0029 34.8924 65.9789 34.8464 65.9469 34.8024L50.0889 7.31841H18.2569L18.2509 7.31641H17.3929L16.9729 8.04641C16.9629 8.05841 16.9549 8.07241 16.9469 8.08641L1.04492 35.6304L17.3889 63.9464H50.0829L66.0149 36.3604C66.0169 36.3544 66.0229 36.3504 66.0249 36.3444L66.4329 35.6364L66.0309 34.9384L66.0289 34.9404ZM4.49092 35.6304L18.2569 11.7904L25.4729 24.2944L18.9269 35.6284L25.5689 47.1344L18.4509 59.8124L4.49092 35.6284V35.6304ZM48.3589 60.9644H21.2249L28.2469 48.4584H41.1429L47.6889 37.1264H62.1249L48.3589 60.9644ZM47.6869 34.1404L41.1449 22.8064H28.0569L20.8389 10.3004L48.3689 10.3064L62.1289 34.1444H47.6889L47.6869 34.1404Z" fill="#325FEC"/>
<path d="M77.6445 41.9464V7.31641H94.5645C101.145 7.31641 105.697 11.3244 105.697 17.1124C105.697 21.3664 102.679 24.8804 98.0785 26.0664C100.355 26.5124 101.987 27.8964 102.829 30.0244L107.281 41.9464H100.949L96.9405 31.0124C96.4465 29.6264 95.3085 28.8844 93.7245 28.8844H83.5825V41.9444H77.6465L77.6445 41.9464ZM83.5805 23.6424H94.2665C97.9265 23.6424 99.8065 21.0204 99.8065 18.0024C99.8065 14.8364 97.6305 12.6604 94.2665 12.6604H83.5805V23.6424Z" fill="#325FEC"/>
<path d="M111.531 41.9464V7.31641H118.853L129.687 34.8224L140.471 7.31641H147.793V41.9464H141.857V17.5564L132.259 41.9464H127.065L117.467 17.6064V41.9464H111.531Z" fill="#325FEC"/>
<path d="M154.521 41.9464V7.31641H160.457V41.9464H154.521Z" fill="#325FEC"/>
<path d="M78.3584 55.3139V48.4619H81.7064C83.0084 48.4619 83.9084 49.2539 83.9084 50.3999C83.9084 51.2419 83.3104 51.9379 82.4004 52.1719C82.8504 52.2599 83.1744 52.5339 83.3404 52.9559L84.2224 55.3159H82.9684L82.1764 53.1519C82.0784 52.8779 81.8524 52.7319 81.5404 52.7319H79.5324V55.3159H78.3584V55.3139ZM79.5344 51.6899H81.6484C82.3724 51.6899 82.7444 51.1719 82.7444 50.5739C82.7444 49.9479 82.3144 49.5159 81.6484 49.5159H79.5344V51.6899Z" fill="#325FEC"/>
<path d="M85.1621 55.3139V48.4619H89.9601V49.5199H86.3281V51.2819H89.6181V52.3099H86.3281V54.2579H90.0481V55.3159H85.1621V55.3139Z" fill="#325FEC"/>
<path d="M90.8301 51.868C90.8301 49.792 92.1421 48.314 94.2761 48.314C96.0581 48.314 97.2821 49.352 97.5761 51.104H96.3721C96.1561 50.028 95.3641 49.372 94.2761 49.372C92.8961 49.372 92.0341 50.342 92.0341 51.868C92.0341 53.394 92.8961 54.394 94.2761 54.394C95.3821 54.394 96.1561 53.758 96.3721 52.67H97.5761C97.2621 54.452 96.0681 55.46 94.2761 55.46C92.1721 55.46 90.8301 54.01 90.8301 51.868Z" fill="#325FEC"/>
<path d="M98.376 51.868C98.376 49.792 99.688 48.314 101.792 48.314C103.896 48.314 105.228 49.714 105.228 51.868C105.228 54.022 103.906 55.46 101.792 55.46C99.678 55.46 98.376 54.05 98.376 51.868ZM104.036 51.868C104.036 50.34 103.164 49.372 101.794 49.372C100.424 49.372 99.572 50.342 99.572 51.868C99.572 53.394 100.434 54.394 101.794 54.394C103.154 54.394 104.036 53.416 104.036 51.868Z" fill="#325FEC"/>
<path d="M106.334 55.3139V48.4619H109.682C110.984 48.4619 111.884 49.2539 111.884 50.3999C111.884 51.2419 111.286 51.9379 110.376 52.1719C110.826 52.2599 111.15 52.5339 111.316 52.9559L112.198 55.3159H110.944L110.152 53.1519C110.054 52.8779 109.828 52.7319 109.516 52.7319H107.508V55.3159H106.334V55.3139ZM107.51 51.6899H109.624C110.348 51.6899 110.72 51.1719 110.72 50.5739C110.72 49.9479 110.29 49.5159 109.624 49.5159H107.51V51.6899Z" fill="#325FEC"/>
<path d="M113.139 55.3139V48.4619H115.605C117.641 48.4619 119.061 49.8519 119.061 51.8499C119.061 53.8479 117.641 55.3159 115.605 55.3159H113.139V55.3139ZM114.313 54.2559H115.683C116.955 54.2559 117.847 53.2679 117.847 51.8479C117.847 50.5059 116.957 49.5179 115.683 49.5179H114.313V54.2559Z" fill="#325FEC"/>
<path d="M122.311 55.3139V48.4619H123.759L125.903 53.9059L128.037 48.4619H129.487V55.3139H128.313V50.4879L126.413 55.3139H125.385L123.485 50.4979V55.3139H122.311Z" fill="#325FEC"/>
<path d="M130.601 51.868C130.601 49.792 131.913 48.314 134.037 48.314C135.819 48.314 137.043 49.372 137.337 51.104H136.133C135.917 50.028 135.125 49.372 134.037 49.372C132.667 49.372 131.805 50.332 131.805 51.868C131.805 53.404 132.677 54.394 133.989 54.394C135.057 54.394 135.751 53.698 135.751 52.72H133.685V51.732H136.025C136.907 51.732 137.385 52.172 137.385 53.004V55.314H136.347V53.218H136.327C136.189 54.588 135.289 55.46 133.869 55.46C131.951 55.46 130.599 54.05 130.599 51.868H130.601Z" fill="#325FEC"/>
<path d="M140.097 55.314V49.518H137.805V48.46H143.551V49.518H141.269V55.314H140.095H140.097Z" fill="#325FEC"/>
<path d="M143.425 54.6859C143.425 54.2659 143.749 53.9419 144.169 53.9419C144.589 53.9419 144.923 54.2659 144.923 54.6859C144.923 55.1059 144.599 55.4399 144.169 55.4399C143.739 55.4399 143.425 55.1159 143.425 54.6859Z" fill="#325FEC"/>
<path d="M148.143 55.3139V48.4619H149.317V55.3139H148.143Z" fill="#325FEC"/>
<path d="M150.736 55.3139V48.4619H152.008L155.406 53.6219V48.4619H156.58V55.3139H155.308L151.91 50.1539V55.3139H150.736Z" fill="#325FEC"/>
<path d="M159.87 55.314V49.518H157.578V48.46H163.324V49.518H161.042V55.314H159.868H159.87Z" fill="#325FEC"/>
<path d="M164.322 55.3139V48.4619H169.12V49.5199H165.488V51.2819H168.778V52.3099H165.488V54.2579H169.208V55.3159H164.322V55.3139Z" fill="#325FEC"/>
<path d="M170.305 55.3139V48.4619H173.653C174.955 48.4619 175.855 49.2539 175.855 50.3999C175.855 51.2419 175.257 51.9379 174.347 52.1719C174.797 52.2599 175.121 52.5339 175.287 52.9559L176.169 55.3159H174.915L174.123 53.1519C174.025 52.8779 173.799 52.7319 173.487 52.7319H171.479V55.3159H170.305V55.3139ZM171.479 51.6899H173.593C174.317 51.6899 174.689 51.1719 174.689 50.5739C174.689 49.9479 174.259 49.5159 173.593 49.5159H171.479V51.6899Z" fill="#325FEC"/>
<path d="M177.106 55.3139V48.4619H181.962V49.5199H178.28V51.4099H181.696V52.4679H178.28V55.3159H177.106V55.3139Z" fill="#325FEC"/>
<path d="M181.658 55.3139L184.458 48.4619H185.632L188.442 55.3139H187.228L186.532 53.6199H183.566L182.87 55.3139H181.656H181.658ZM183.988 52.5819H186.112L185.054 49.9779L183.986 52.5819H183.988Z" fill="#325FEC"/>
<path d="M188.648 51.868C188.648 49.792 189.96 48.314 192.094 48.314C193.876 48.314 195.1 49.352 195.394 51.104H194.19C193.974 50.028 193.182 49.372 192.094 49.372C190.714 49.372 189.852 50.342 189.852 51.868C189.852 53.394 190.714 54.394 192.094 54.394C193.2 54.394 193.974 53.758 194.19 52.67H195.394C195.08 54.452 193.886 55.46 192.094 55.46C189.99 55.46 188.648 54.01 188.648 51.868Z" fill="#325FEC"/>
<path d="M196.509 55.3139V48.4619H201.307V49.5199H197.675V51.2819H200.965V52.3099H197.675V54.2579H201.395V55.3159H196.509V55.3139Z" fill="#325FEC"/>
<path d="M78.1621 61.2523C78.1621 59.2163 79.4061 57.7383 81.5101 57.7383C83.2521 57.7383 84.4481 58.7563 84.7401 60.4803H83.8881C83.6341 59.2263 82.7521 58.4923 81.5081 58.4923C79.9721 58.4923 79.0221 59.5583 79.0221 61.2523C79.0221 62.9463 79.9721 64.0523 81.5081 64.0523C82.7901 64.0523 83.6221 63.3583 83.8881 62.0643H84.7401C84.4361 63.8463 83.3001 64.8063 81.5101 64.8063C79.4061 64.8063 78.1621 63.3283 78.1621 61.2523Z" fill="#325FEC"/>
<path d="M85.7783 61.2523C85.7783 59.2163 87.0223 57.7383 89.0783 57.7383C91.1343 57.7383 92.3963 59.1283 92.3963 61.2523C92.3963 63.3763 91.1523 64.8063 89.0783 64.8063C87.1203 64.8063 85.7783 63.4163 85.7783 61.2523ZM91.5543 61.2523C91.5543 59.5583 90.5943 58.4923 89.0783 58.4923C87.5623 58.4923 86.6203 59.5583 86.6203 61.2523C86.6203 62.9463 87.5703 64.0523 89.0783 64.0523C90.5863 64.0523 91.5543 62.9663 91.5543 61.2523Z" fill="#325FEC"/>
<path d="M93.7461 64.6982V57.8462H94.7741L97.1921 63.7202L99.6001 57.8462H100.638V64.6982H99.8161V59.2742L97.5841 64.6982H96.7921L94.5701 59.2942V64.6982H93.7481H93.7461Z" fill="#325FEC"/>
<path d="M102.303 64.6982V57.8462H105.543C106.973 57.8462 107.735 58.7562 107.735 59.8522C107.735 61.2422 106.755 61.9862 105.543 61.9862H103.125V64.6982H102.303ZM103.125 61.2322H105.583C106.435 61.2322 106.895 60.6162 106.895 59.8522C106.895 59.0402 106.307 58.5982 105.583 58.5982H103.125V61.2322Z" fill="#325FEC"/>
<path d="M108.958 64.6982V57.8462H109.78V63.9442H113.452V64.6982H108.958Z" fill="#325FEC"/>
<path d="M114.674 64.6982V57.8462H115.496V64.6982H114.674Z" fill="#325FEC"/>
<path d="M116.604 64.6982L119.424 57.8462H120.256L123.086 64.6982H122.234L121.432 62.7402H118.26L117.458 64.6982H116.606H116.604ZM118.57 61.9962H121.116L119.844 58.8922L118.572 61.9962H118.57Z" fill="#325FEC"/>
<path d="M124.19 64.6982V57.8462H125.13L129.006 63.5242V57.8462H129.828V64.6982H128.888L125.012 59.0202V64.6982H124.19Z" fill="#325FEC"/>
<path d="M131.178 61.2523C131.178 59.2163 132.422 57.7383 134.526 57.7383C136.268 57.7383 137.462 58.7563 137.756 60.4803H136.904C136.65 59.2263 135.768 58.4923 134.526 58.4923C132.988 58.4923 132.04 59.5583 132.04 61.2523C132.04 62.9463 132.99 64.0523 134.526 64.0523C135.808 64.0523 136.64 63.3583 136.904 62.0643H137.756C137.452 63.8463 136.316 64.8063 134.526 64.8063C132.422 64.8063 131.178 63.3283 131.178 61.2523Z" fill="#325FEC"/>
<path d="M139.108 64.6982V57.8462H143.788V58.6002H139.92V60.7642H143.396V61.4982H139.92V63.9462H143.876V64.7002H139.108V64.6982Z" fill="#325FEC"/>
<path d="M147.389 64.6982V57.8462H150.629C152.059 57.8462 152.821 58.7562 152.821 59.8522C152.821 61.2422 151.843 61.9862 150.629 61.9862H148.211V64.6982H147.389ZM148.211 61.2322H150.669C151.521 61.2322 151.981 60.6162 151.981 59.8522C151.981 59.0402 151.393 58.5982 150.669 58.5982H148.211V61.2322Z" fill="#325FEC"/>
<path d="M153.732 61.2523C153.732 59.2163 154.976 57.7383 157.032 57.7383C159.088 57.7383 160.35 59.1283 160.35 61.2523C160.35 63.3763 159.106 64.8063 157.032 64.8063C155.074 64.8063 153.732 63.4163 153.732 61.2523ZM159.508 61.2523C159.508 59.5583 158.548 58.4923 157.032 58.4923C155.516 58.4923 154.574 59.5583 154.574 61.2523C154.574 62.9463 155.524 64.0523 157.032 64.0523C158.54 64.0523 159.508 62.9663 159.508 61.2523Z" fill="#325FEC"/>
<path d="M161.7 64.6982V57.8462H164.824C166.116 57.8462 167.008 58.6202 167.008 59.7362C167.008 60.5482 166.46 61.2342 165.628 61.4982C165.99 61.5962 166.244 61.8302 166.372 62.1742L167.322 64.7002H166.44L165.558 62.3222C165.45 62.0282 165.216 61.8722 164.892 61.8722H162.522V64.7022H161.7V64.6982ZM162.522 61.1342H164.862C165.714 61.1342 166.174 60.5462 166.174 59.8122C166.174 59.0102 165.606 58.5982 164.862 58.5982H162.522V61.1342Z" fill="#325FEC"/>
<path d="M170.352 64.6982V58.5982H167.982V57.8442H173.542V58.5982H171.172V64.6982H170.35H170.352Z" fill="#325FEC"/>
<path d="M173.183 64.6982L176.003 57.8462H176.835L179.665 64.6982H178.813L178.011 62.7402H174.839L174.037 64.6982H173.185H173.183ZM175.151 61.9962H177.697L176.425 58.8922L175.153 61.9962H175.151Z" fill="#325FEC"/>
<path d="M180.769 64.6982V57.8462H181.591V63.9442H185.263V64.6982H180.769Z" fill="#325FEC"/>
</g>
<defs>
<clipPath id="clip0_2068_2706">
<rect width="201" height="71" fill="white" transform="translate(0.5 0.5)"/>
</clipPath>
</defs>
</svg>
