<svg width="322" height="71" viewBox="0 0 322 71" fill="none" xmlns="http://www.w3.org/2000/svg">
<path d="M64.988 35.6201C64.962 35.5721 64.938 35.5261 64.906 35.4821L49.048 7.9981H17.214L17.208 7.99609H16.35L15.93 8.7261C15.92 8.7381 15.912 8.75209 15.904 8.76609L0 36.3081L16.344 64.6241H49.038L64.97 37.0381C64.972 37.0321 64.978 37.0281 64.98 37.0221L65.388 36.3141L64.986 35.6161L64.988 35.6201ZM3.45 36.3101L17.216 12.4721L24.432 24.9761L17.886 36.3101L24.528 47.8161L17.41 60.4941L3.45 36.3101ZM47.318 61.6441H20.184L27.206 49.1381H40.102L46.648 37.8061H61.084L47.318 61.6441ZM46.646 34.8201L40.104 23.4861H27.016L19.798 10.9801L47.328 10.9861L61.088 34.8241H46.648L46.646 34.8201Z" fill="#325FEC"/>
<path d="M76.3076 41.16V7.58398H99.8116V12.764H82.0156V21.398H98.1316V26.434H82.0156V35.98H100.244V41.16H76.3076Z" fill="#325FEC"/>
<path d="M105.613 41.16V7.58398H112.713L123.217 34.254L133.673 7.58398H140.771V41.16H135.015V17.512L125.709 41.16H120.673L111.367 17.56V41.16H105.611H105.613Z" fill="#325FEC"/>
<path d="M75.3457 59.2363C75.3457 55.9883 77.3977 53.6763 80.6917 53.6763C83.9857 53.6763 86.0677 55.8663 86.0677 59.2363C86.0677 62.6063 83.9997 64.8583 80.6917 64.8583C77.3837 64.8583 75.3457 62.6523 75.3457 59.2363ZM84.1997 59.2363C84.1997 56.8463 82.8357 55.3303 80.6917 55.3303C78.5477 55.3303 77.2157 56.8463 77.2157 59.2363C77.2157 61.6263 78.5637 63.1883 80.6917 63.1883C82.8197 63.1883 84.1997 61.6563 84.1997 59.2363Z" fill="#325FEC"/>
<path d="M87.7979 64.6283V53.9062H89.7899L95.1039 61.9783V53.9062H96.9419V64.6283H94.9499L89.6359 56.5563V64.6283H87.7979Z" fill="#325FEC"/>
<path d="M99.1797 64.6283V53.9062H101.018V62.9742H106.486V64.6283H99.1797Z" fill="#325FEC"/>
<path d="M108.109 64.6283V53.9062H109.947V64.6283H108.109Z" fill="#325FEC"/>
<path d="M112.168 64.6283V53.9062H114.16L119.474 61.9783V53.9062H121.312V64.6283H119.32L114.006 56.5563V64.6283H112.168Z" fill="#325FEC"/>
<path d="M123.55 64.6283V53.9062H131.056V55.5602H125.374V58.3182H130.52V59.9263H125.374V62.9742H131.194V64.6283H123.55Z" fill="#325FEC"/>
<path d="M136.248 64.6283V53.9062H138.086V62.9742H143.554V64.6283H136.248Z" fill="#325FEC"/>
<path d="M145.178 64.6283V53.9062H152.684V55.5602H147.002V58.3182H152.148V59.9263H147.002V62.9742H152.822V64.6283H145.178Z" fill="#325FEC"/>
<path d="M153.693 64.6283L158.073 53.9062H159.911L164.307 64.6283H162.407L161.319 61.9783H156.679L155.591 64.6283H153.691H153.693ZM157.337 60.3542H160.661L159.007 56.2802L157.337 60.3542Z" fill="#325FEC"/>
<path d="M165.702 64.6283V53.9062H170.94C172.978 53.9062 174.386 55.1463 174.386 56.9383C174.386 58.2563 173.452 59.3422 172.028 59.7102C172.732 59.8482 173.238 60.2762 173.498 60.9362L174.876 64.6283H172.916L171.676 61.2443C171.522 60.8163 171.17 60.5862 170.68 60.5862H167.54V64.6302H165.702V64.6283ZM167.54 58.9622H170.848C171.982 58.9622 172.564 58.1502 172.564 57.2162C172.564 56.2362 171.89 55.5622 170.848 55.5622H167.54V58.9622Z" fill="#325FEC"/>
<path d="M176.348 64.6283V53.9062H178.34L183.654 61.9783V53.9062H185.492V64.6283H183.5L178.186 56.5563V64.6283H176.348Z" fill="#325FEC"/>
<path d="M187.728 64.6283V53.9062H189.566V64.6283H187.728Z" fill="#325FEC"/>
<path d="M191.788 64.6283V53.9062H193.78L199.094 61.9783V53.9062H200.932V64.6283H198.94L193.626 56.5563V64.6283H191.788Z" fill="#325FEC"/>
<path d="M202.678 59.2363C202.678 55.9883 204.73 53.6763 208.054 53.6763C210.842 53.6763 212.756 55.3303 213.216 58.0423H211.332C210.996 56.3583 209.754 55.3303 208.054 55.3303C205.91 55.3303 204.562 56.8303 204.562 59.2363C204.562 61.6423 205.926 63.1883 207.978 63.1883C209.648 63.1883 210.734 62.1003 210.734 60.5683H207.502V59.0223H211.162C212.54 59.0223 213.292 59.7123 213.292 61.0143V64.6283H211.668V61.3503H211.638C211.424 63.4943 210.014 64.8583 207.794 64.8583C204.792 64.8583 202.678 62.6523 202.678 59.2363Z" fill="#325FEC"/>
<path d="M218.578 64.6283V53.9062H224.016C226.206 53.9062 227.538 55.3623 227.538 57.2763C227.538 59.4363 226.038 60.7523 224.016 60.7523H220.416V64.6283H218.578ZM220.416 59.1003H223.924C225.072 59.1003 225.67 58.2423 225.67 57.2783C225.67 56.3143 224.98 55.5622 223.924 55.5622H220.416V59.1003Z" fill="#325FEC"/>
<path d="M229.191 64.6283V53.9062H231.029V62.9742H236.497V64.6283H229.191Z" fill="#325FEC"/>
<path d="M237.28 64.6283L241.66 53.9062H243.498L247.894 64.6283H245.994L244.906 61.9783H240.266L239.178 64.6283H237.278H237.28ZM240.924 60.3542H244.248L242.594 56.2802L240.924 60.3542Z" fill="#325FEC"/>
<path d="M250.605 64.6283V55.5602H247.021V53.9062H256.013V55.5602H252.445V64.6283H250.607H250.605Z" fill="#325FEC"/>
<path d="M257.574 64.6283V53.9062H265.172V55.5602H259.412V58.5162H264.758V60.1703H259.412V64.6283H257.574Z" fill="#325FEC"/>
<path d="M266.322 59.2363C266.322 55.9883 268.374 53.6763 271.668 53.6763C274.962 53.6763 277.044 55.8663 277.044 59.2363C277.044 62.6063 274.976 64.8583 271.668 64.8583C268.36 64.8583 266.322 62.6523 266.322 59.2363ZM275.174 59.2363C275.174 56.8463 273.81 55.3303 271.666 55.3303C269.522 55.3303 268.19 56.8463 268.19 59.2363C268.19 61.6263 269.538 63.1883 271.666 63.1883C273.794 63.1883 275.174 61.6563 275.174 59.2363Z" fill="#325FEC"/>
<path d="M278.773 64.6283V53.9062H284.011C286.049 53.9062 287.457 55.1463 287.457 56.9383C287.457 58.2563 286.523 59.3422 285.099 59.7102C285.803 59.8482 286.309 60.2762 286.569 60.9362L287.947 64.6283H285.987L284.747 61.2443C284.593 60.8163 284.241 60.5862 283.751 60.5862H280.611V64.6302H278.773V64.6283ZM280.611 58.9622H283.919C285.053 58.9622 285.635 58.1502 285.635 57.2162C285.635 56.2362 284.961 55.5622 283.919 55.5622H280.611V58.9622Z" fill="#325FEC"/>
<path d="M289.42 64.6283V53.9062H291.686L295.04 62.4222L298.38 53.9062H300.646V64.6283H298.808V57.0763L295.836 64.6283H294.228L291.256 57.0922V64.6283H289.418H289.42Z" fill="#325FEC"/>
<path d="M148.6 41.3061V7.70605H152.632V37.6101H170.632V41.3061H148.6Z" fill="#325FEC"/>
<path d="M176.632 41.3061V7.70605H199.576V11.4021H180.616V22.0101H197.656V25.6101H180.616V37.6101H200.008V41.3061H176.632Z" fill="#325FEC"/>
<path d="M203.701 41.3061L217.525 7.70605H221.605L235.477 41.3061H231.301L227.365 31.7061H211.813L207.877 41.3061H203.701ZM213.349 28.0581H225.829L219.589 12.8421L213.349 28.0581Z" fill="#325FEC"/>
<path d="M240.901 41.3061V7.70605H256.213C262.549 7.70605 266.917 11.4981 266.917 16.9701C266.917 20.9541 264.229 24.3141 260.149 25.6101C261.925 26.0901 263.173 27.2421 263.797 28.9221L268.453 41.3061H264.133L259.813 29.6421C259.285 28.2021 258.133 27.4341 256.549 27.4341H244.933V41.3061H240.901ZM244.933 23.8341H256.405C260.581 23.8341 262.837 20.9541 262.837 17.3541C262.837 13.4181 260.053 11.4021 256.405 11.4021H244.933V23.8341Z" fill="#325FEC"/>
<path d="M274.117 41.3061V7.70605H278.725L297.733 35.5461V7.70605H301.765V41.3061H297.157L278.149 13.4661V41.3061H274.117Z" fill="#325FEC"/>
</svg>
